<svg xmlns="http://www.w3.org/2000/svg" xmlns:xlink="http://www.w3.org/1999/xlink" width="150" zoomAndPan="magnify" viewBox="0 0 112.5 74.999997" height="100" preserveAspectRatio="xMidYMid meet" version="1.0"><defs><g/><clipPath id="fc08016699"><path d="M 0 5 L 14 5 L 14 50.941406 L 0 50.941406 Z M 0 5 " clip-rule="nonzero"/></clipPath><clipPath id="9cdc6307bf"><path d="M 13 5 L 54.507812 5 L 54.507812 31 L 13 31 Z M 13 5 " clip-rule="nonzero"/></clipPath><clipPath id="adac63336f"><path d="M 8 0.164062 L 34 0.164062 L 34 40 L 8 40 Z M 8 0.164062 " clip-rule="nonzero"/></clipPath></defs><path fill="#fcb713" d="M 17.957031 39.210938 C 17.957031 39.210938 19.6875 40.398438 20.382812 40.734375 C 20.382812 40.734375 20.382812 40.734375 20.382812 40.730469 C 20.539062 40.78125 20.691406 40.828125 20.832031 40.894531 C 21.101562 41.019531 21.371094 41.144531 21.636719 41.269531 C 21.636719 41.269531 21.644531 41.269531 21.644531 41.269531 C 25.476562 43.0625 29.304688 44.859375 33.136719 46.664062 C 35.132812 47.601562 35.164062 47.589844 36.714844 46.089844 C 41.222656 41.742188 45.730469 37.40625 50.238281 33.066406 C 51.328125 32.011719 52.425781 30.96875 53.5 29.894531 C 54.023438 29.375 54.0625 28.304688 53.5 28.027344 C 53.246094 27.902344 52.648438 28.210938 52.355469 28.480469 C 49.996094 30.691406 47.671875 32.933594 45.335938 35.15625 C 42.019531 38.316406 38.710938 41.484375 35.367188 44.609375 C 35.09375 44.867188 34.445312 45.042969 34.136719 44.898438 C 29.816406 42.847656 25.503906 40.769531 21.234375 38.605469 C 20.65625 38.316406 20.089844 37.550781 19.957031 36.921875 C 19.695312 35.636719 19.742188 34.289062 19.644531 32.777344 C 20.171875 32.992188 20.5 33.117188 20.8125 33.261719 C 24.882812 35.171875 28.957031 37.070312 33.019531 39.003906 C 33.988281 39.464844 34.734375 39.339844 35.539062 38.589844 C 37.800781 36.472656 40.125 34.433594 42.425781 32.363281 C 45.253906 29.816406 48.089844 27.277344 50.902344 24.710938 C 51.878906 23.824219 51.78125 23.039062 50.675781 22.527344 C 46.238281 20.480469 41.8125 18.421875 37.351562 16.441406 C 36.035156 15.855469 34.746094 15.9375 33.503906 16.988281 C 28.832031 20.953125 24.125 24.867188 19.367188 28.730469 C 18.296875 29.605469 17.640625 30.625 17.40625 31.933594 C 17.25 32.820312 17.125 33.738281 17.175781 34.632812 C 17.269531 36.125 16.988281 38.070312 17.957031 39.210938 Z M 17.957031 39.210938 " fill-opacity="1" fill-rule="nonzero"/><g clip-path="url(#fc08016699)"><path fill="#ef5125" d="M 13.835938 50.9375 C 8.582031 47.03125 4.632812 42.273438 2.21875 36.300781 C 0.824219 32.855469 0.164062 29.261719 0.078125 25.546875 C 0 22.074219 0.417969 18.699219 1.707031 15.457031 C 3.171875 11.757812 5.496094 8.707031 8.570312 6.214844 C 9 5.863281 9.417969 5.496094 9.910156 5.089844 C 10.347656 6.890625 10.722656 8.621094 11.199219 10.332031 C 11.445312 11.210938 11.230469 11.792969 10.597656 12.417969 C 7.203125 15.730469 5.042969 19.730469 4.269531 24.449219 C 3.832031 27.117188 3.890625 29.800781 4.265625 32.472656 C 5.148438 38.820312 8.03125 44.195312 12.199219 48.945312 C 12.695312 49.511719 13.207031 50.050781 13.710938 50.609375 C 13.75 50.65625 13.757812 50.734375 13.835938 50.9375 Z M 13.835938 50.9375 " fill-opacity="1" fill-rule="nonzero"/></g><g clip-path="url(#9cdc6307bf)"><path fill="#329fd9" d="M 13.835938 29.933594 C 14.390625 28.257812 14.875 26.546875 15.515625 24.902344 C 17.289062 20.390625 19.832031 16.382812 23.390625 13.074219 C 27.550781 9.210938 32.398438 6.613281 37.964844 5.507812 C 42.699219 4.570312 47.28125 5.214844 51.648438 7.292969 C 52.539062 7.71875 53.414062 8.1875 54.507812 8.753906 C 54.304688 8.84375 54.175781 8.871094 54.074219 8.941406 C 52.628906 10.007812 51.179688 11.066406 49.757812 12.160156 C 49.28125 12.527344 48.835938 12.546875 48.308594 12.316406 C 46.398438 11.488281 44.421875 10.917969 42.359375 10.613281 C 38.613281 10.0625 34.980469 10.523438 31.496094 11.9375 C 23.574219 15.160156 17.929688 20.710938 14.699219 28.699219 C 14.515625 29.152344 14.285156 29.585938 14.078125 30.03125 C 14 30 13.917969 29.96875 13.835938 29.933594 Z M 13.835938 29.933594 " fill-opacity="1" fill-rule="nonzero"/></g><g clip-path="url(#adac63336f)"><path fill="#7db942" d="M 33.175781 0.167969 C 32.71875 1.398438 32.308594 2.535156 31.882812 3.667969 C 31.640625 4.320312 31.363281 4.957031 31.136719 5.613281 C 30.972656 6.089844 30.640625 6.3125 30.195312 6.382812 C 22.3125 7.671875 16.84375 12.167969 13.285156 19.21875 C 11.753906 22.257812 10.695312 25.449219 10.25 28.824219 C 9.898438 31.492188 9.890625 34.164062 10.316406 36.835938 C 10.472656 37.808594 10.609375 38.78125 10.753906 39.753906 C 10.703125 39.769531 10.648438 39.78125 10.597656 39.796875 C 10.179688 38.15625 9.699219 36.527344 9.347656 34.875 C 8.71875 31.941406 8.589844 28.953125 8.777344 25.972656 C 9.054688 21.691406 10.222656 17.640625 12.265625 13.855469 C 13.898438 10.832031 15.875 8.066406 18.480469 5.792969 C 21.625 3.035156 25.261719 1.3125 29.375 0.640625 C 30.613281 0.4375 31.847656 0.332031 33.175781 0.167969 Z M 33.175781 0.167969 " fill-opacity="1" fill-rule="nonzero"/></g><g fill="#ffffff" fill-opacity="1"><g transform="translate(54.130581, 25.55522)"><g><path d="M 5.484375 -8.890625 L 2.328125 -8.890625 L 2.328125 -4.65625 L 5.484375 -1.953125 Z M 0.390625 -9.421875 C 0.390625 -9.773438 0.523438 -10.066406 0.796875 -10.296875 C 1.066406 -10.523438 1.378906 -10.640625 1.734375 -10.640625 L 7.3125 -10.640625 L 7.3125 0.265625 C 6.945312 0.0351562 6.585938 -0.1875 6.234375 -0.40625 C 5.878906 -0.625 5.546875 -0.828125 5.234375 -1.015625 C 4.929688 -1.203125 4.65625 -1.367188 4.40625 -1.515625 C 4.164062 -1.671875 3.976562 -1.789062 3.84375 -1.875 C 2.65625 -2.5 1.503906 -2.976562 0.390625 -3.3125 Z M 0.390625 -9.421875 "/></g></g></g><g fill="#ffffff" fill-opacity="1"><g transform="translate(61.904762, 25.55522)"><g><path d="M 1.46875 -5.9375 C 0.945312 -6.488281 0.6875 -7.085938 0.6875 -7.734375 C 0.6875 -8.046875 0.726562 -8.359375 0.8125 -8.671875 C 0.90625 -8.984375 1.03125 -9.28125 1.1875 -9.5625 C 1.550781 -10.28125 2.085938 -10.640625 2.796875 -10.640625 L 9.625 -10.640625 C 9.613281 -10.609375 9.609375 -10.460938 9.609375 -10.203125 C 9.609375 -9.953125 9.609375 -9.675781 9.609375 -9.375 C 9.609375 -9.070312 9.609375 -8.773438 9.609375 -8.484375 C 9.609375 -8.203125 9.609375 -8.015625 9.609375 -7.921875 C 9.609375 -5.867188 9.207031 -4.5 8.40625 -3.8125 C 8.09375 -3.550781 7.648438 -3.332031 7.078125 -3.15625 C 6.515625 -2.976562 5.804688 -2.84375 4.953125 -2.75 C 5.285156 -2.5 5.644531 -2.242188 6.03125 -1.984375 C 6.414062 -1.722656 6.800781 -1.457031 7.1875 -1.1875 C 7.582031 -0.925781 7.960938 -0.671875 8.328125 -0.421875 C 8.691406 -0.171875 9.023438 0.0625 9.328125 0.28125 L 8 0.28125 C 7.195312 -0.0703125 6.5 -0.378906 5.90625 -0.640625 C 5.3125 -0.898438 4.804688 -1.109375 4.390625 -1.265625 C 3.742188 -1.492188 3.082031 -1.703125 2.40625 -1.890625 C 1.738281 -2.078125 1.09375 -2.226562 0.46875 -2.34375 L 0.46875 -4.171875 L 5.3125 -4.140625 C 5.988281 -4.140625 6.546875 -4.351562 6.984375 -4.78125 C 7.421875 -5.207031 7.640625 -5.765625 7.640625 -6.453125 L 7.640625 -8.859375 L 2.75 -8.859375 C 2.164062 -8.535156 1.875 -8.0625 1.875 -7.4375 C 1.875 -6.882812 2.25 -6.375 3 -5.90625 C 2.976562 -5.988281 2.960938 -6.054688 2.953125 -6.109375 C 2.953125 -6.171875 2.953125 -6.238281 2.953125 -6.3125 C 2.953125 -6.5 2.972656 -6.675781 3.015625 -6.84375 C 3.066406 -7.019531 3.128906 -7.175781 3.203125 -7.3125 C 3.410156 -7.675781 3.734375 -7.859375 4.171875 -7.859375 C 4.566406 -7.859375 4.898438 -7.734375 5.171875 -7.484375 C 5.453125 -7.234375 5.59375 -6.90625 5.59375 -6.5 C 5.59375 -6.269531 5.535156 -6.054688 5.421875 -5.859375 C 5.316406 -5.671875 5.171875 -5.507812 4.984375 -5.375 C 4.804688 -5.238281 4.601562 -5.132812 4.375 -5.0625 C 4.15625 -4.988281 3.929688 -4.953125 3.703125 -4.953125 C 3.390625 -4.953125 2.988281 -5.050781 2.5 -5.25 C 2.269531 -5.375 2.066406 -5.488281 1.890625 -5.59375 C 1.710938 -5.707031 1.570312 -5.816406 1.46875 -5.921875 Z M 3.75 -15.234375 C 3.75 -14.785156 3.535156 -14.5625 3.109375 -14.5625 C 2.609375 -14.5625 2.359375 -14.742188 2.359375 -15.109375 C 2.359375 -15.285156 2.453125 -15.453125 2.640625 -15.609375 C 2.617188 -15.609375 2.59375 -15.613281 2.5625 -15.625 C 2.539062 -15.632812 2.515625 -15.640625 2.484375 -15.640625 C 2.160156 -15.640625 1.960938 -15.425781 1.890625 -15 C 1.878906 -14.9375 1.875 -14.863281 1.875 -14.78125 C 1.875 -14.695312 1.875 -14.625 1.875 -14.5625 C 1.875 -14.019531 2.109375 -13.660156 2.578125 -13.484375 L 2.5625 -13.484375 C 2.71875 -13.453125 2.929688 -13.421875 3.203125 -13.390625 C 3.484375 -13.367188 3.84375 -13.359375 4.28125 -13.359375 C 4.4375 -13.359375 4.679688 -13.367188 5.015625 -13.390625 C 5.347656 -13.421875 5.757812 -13.457031 6.25 -13.5 C 6.75 -13.539062 7.203125 -13.5625 7.609375 -13.5625 C 7.722656 -13.5625 7.832031 -13.554688 7.9375 -13.546875 C 8.050781 -13.535156 8.15625 -13.53125 8.25 -13.53125 C 9.125 -13.457031 9.554688 -13.132812 9.546875 -12.5625 C 9.546875 -12.457031 9.539062 -12.304688 9.53125 -12.109375 C 9.53125 -11.921875 9.53125 -11.773438 9.53125 -11.671875 L 2.4375 -11.671875 C 1.738281 -11.671875 1.28125 -11.875 1.0625 -12.28125 C 0.90625 -12.53125 0.828125 -13.035156 0.828125 -13.796875 C 0.828125 -14.109375 0.851562 -14.394531 0.90625 -14.65625 C 0.96875 -14.925781 1.0625 -15.175781 1.1875 -15.40625 C 1.507812 -16.070312 1.984375 -16.40625 2.609375 -16.40625 C 3.367188 -16.40625 3.75 -16.015625 3.75 -15.234375 Z M 3.75 -15.234375 "/></g></g></g><g fill="#ffffff" fill-opacity="1"><g transform="translate(40.270972, 54.044157)"><g><path d="M 0.1875 -10.671875 L 2.078125 -10.671875 L 2.078125 -3.640625 C 2.078125 -3.171875 2.160156 -2.691406 2.328125 -2.203125 C 2.492188 -1.722656 2.726562 -1.265625 3.03125 -0.828125 C 3.382812 -0.378906 3.773438 -0.03125 4.203125 0.21875 C 4.628906 0.476562 5.070312 0.613281 5.53125 0.625 C 5.289062 0.738281 5.007812 0.804688 4.6875 0.828125 C 4.375 0.847656 4.039062 0.816406 3.6875 0.734375 C 3.34375 0.660156 3 0.535156 2.65625 0.359375 C 2.320312 0.191406 2.019531 -0.0390625 1.75 -0.34375 C 1.25 -0.914062 0.863281 -1.554688 0.59375 -2.265625 C 0.320312 -2.984375 0.1875 -3.75 0.1875 -4.5625 Z M 0.1875 -10.671875 "/></g></g></g><g fill="#ffffff" fill-opacity="1"><g transform="translate(44.483683, 54.044157)"><g><path d="M 5.84375 -1.734375 L 6.390625 -1.734375 L 6.390625 -7.1875 L 2.375 -2.578125 L 2.375 -1.234375 L 0.15625 -3.5625 L 0.671875 -3.5625 L 0.671875 -10.640625 L 2.546875 -10.640625 L 2.546875 -5.4375 L 6.59375 -10.328125 L 8.0625 -10.328125 L 8.0625 0.21875 Z M 5.84375 -1.734375 "/></g></g></g><g fill="#ffffff" fill-opacity="1"><g transform="translate(53.092266, 54.044157)"><g><path d="M 1.1875 -1.484375 L 1.1875 -10.640625 L 3.171875 -10.640625 L 3.171875 0.28125 Z M 1.1875 -1.484375 "/></g></g></g><g fill="#ffffff" fill-opacity="1"><g transform="translate(57.386385, 54.044157)"><g><path d="M 5.703125 -8.890625 L 2.484375 -8.890625 L 2.484375 -4.765625 L 5.703125 -2.46875 Z M 8.25 -4.984375 C 8.15625 -5.273438 8.109375 -5.507812 8.109375 -5.6875 C 8.109375 -5.882812 8.132812 -6.070312 8.1875 -6.25 C 8.238281 -6.425781 8.3125 -6.601562 8.40625 -6.78125 C 8.664062 -7.195312 9.019531 -7.40625 9.46875 -7.40625 C 9.644531 -7.40625 9.8125 -7.367188 9.96875 -7.296875 C 10.132812 -7.234375 10.28125 -7.140625 10.40625 -7.015625 C 10.539062 -6.898438 10.644531 -6.765625 10.71875 -6.609375 C 10.789062 -6.453125 10.828125 -6.285156 10.828125 -6.109375 C 10.828125 -5.785156 10.703125 -5.515625 10.453125 -5.296875 C 10.203125 -5.085938 9.847656 -4.953125 9.390625 -4.890625 C 9.410156 -4.859375 9.460938 -4.835938 9.546875 -4.828125 C 9.867188 -4.710938 10.15625 -4.65625 10.40625 -4.65625 C 10.914062 -4.65625 11.34375 -4.789062 11.6875 -5.0625 C 12.039062 -5.34375 12.21875 -5.722656 12.21875 -6.203125 C 12.21875 -6.722656 12.066406 -7.273438 11.765625 -7.859375 C 11.453125 -8.546875 11.070312 -8.890625 10.625 -8.890625 L 7.546875 -8.890625 L 7.546875 0.28125 C 4.742188 -1.601562 2.398438 -2.832031 0.515625 -3.40625 L 0.515625 -9.484375 C 0.515625 -10.253906 0.976562 -10.640625 1.90625 -10.640625 L 11.078125 -10.640625 C 11.222656 -10.640625 11.421875 -10.5625 11.671875 -10.40625 C 12.265625 -10.007812 12.710938 -9.59375 13.015625 -9.15625 C 13.160156 -8.925781 13.273438 -8.65625 13.359375 -8.34375 C 13.441406 -8.03125 13.484375 -7.710938 13.484375 -7.390625 C 13.484375 -6.910156 13.394531 -6.414062 13.21875 -5.90625 C 13.039062 -5.40625 12.785156 -4.984375 12.453125 -4.640625 C 12.273438 -4.460938 12.097656 -4.320312 11.921875 -4.21875 C 11.753906 -4.125 11.570312 -4.046875 11.375 -3.984375 C 11.1875 -3.929688 10.988281 -3.898438 10.78125 -3.890625 C 10.582031 -3.878906 10.363281 -3.875 10.125 -3.875 C 9.988281 -3.875 9.820312 -3.898438 9.625 -3.953125 C 9.425781 -4.003906 9.234375 -4.082031 9.046875 -4.1875 C 8.554688 -4.445312 8.28125 -4.722656 8.21875 -5.015625 Z M 8.25 -4.984375 "/></g></g></g><g fill="#ffffff" fill-opacity="1"><g transform="translate(71.489809, 54.044157)"><g><path d="M 1.1875 -1.484375 L 1.1875 -10.640625 L 3.171875 -10.640625 L 3.171875 0.28125 Z M 1.1875 -1.484375 "/></g></g></g><g fill="#ffffff" fill-opacity="1"><g transform="translate(75.783928, 54.044157)"><g><path d="M 7.25 -1.453125 L 7.8125 -1.453125 L 7.8125 -5.84375 L 4.09375 -5.84375 C 3.476562 -5.84375 2.960938 -5.664062 2.546875 -5.3125 C 2.140625 -4.957031 1.9375 -4.476562 1.9375 -3.875 C 1.9375 -3.289062 2.109375 -2.832031 2.453125 -2.5 C 2.796875 -2.164062 3.253906 -2 3.828125 -2 C 3.953125 -2 4.085938 -2.003906 4.234375 -2.015625 C 4.378906 -2.023438 4.539062 -2.046875 4.71875 -2.078125 C 4.019531 -2.523438 3.671875 -2.953125 3.671875 -3.359375 C 3.671875 -3.523438 3.707031 -3.6875 3.78125 -3.84375 C 3.863281 -4 3.972656 -4.132812 4.109375 -4.25 C 4.242188 -4.363281 4.394531 -4.453125 4.5625 -4.515625 C 4.726562 -4.585938 4.890625 -4.625 5.046875 -4.625 C 5.253906 -4.625 5.445312 -4.582031 5.625 -4.5 C 5.8125 -4.414062 5.972656 -4.300781 6.109375 -4.15625 C 6.242188 -4.019531 6.351562 -3.863281 6.4375 -3.6875 C 6.519531 -3.507812 6.5625 -3.316406 6.5625 -3.109375 C 6.5625 -2.785156 6.492188 -2.492188 6.359375 -2.234375 C 6.234375 -1.984375 6.0625 -1.769531 5.84375 -1.59375 C 5.625 -1.414062 5.363281 -1.273438 5.0625 -1.171875 C 4.769531 -1.078125 4.460938 -1.03125 4.140625 -1.03125 C 3.210938 -1.03125 2.367188 -1.375 1.609375 -2.0625 C 1.253906 -2.382812 0.972656 -2.753906 0.765625 -3.171875 C 0.566406 -3.597656 0.46875 -4.039062 0.46875 -4.5 C 0.46875 -5.351562 0.765625 -6.078125 1.359375 -6.671875 C 1.972656 -7.285156 2.703125 -7.59375 3.546875 -7.59375 L 7.8125 -7.59375 L 7.8125 -10.640625 L 9.609375 -10.640625 L 9.609375 0.890625 Z M 7.25 -1.453125 "/></g></g></g></svg>